<?xml version="1.0" encoding="utf-8"?>
<!-- Generator: Adobe Illustrator 28.0.0, SVG Export Plug-In . SVG Version: 6.00 Build 0)  -->
<svg version="1.1" id="Слой_1" xmlns="http://www.w3.org/2000/svg" xmlns:xlink="http://www.w3.org/1999/xlink" x="0px" y="0px"
	 viewBox="0 0 170.08 170.08" style="enable-background:new 0 0 170.08 170.08;" xml:space="preserve">
<style type="text/css">
	.st0{fill:#BAA7B8;}
</style>
<g>
	<g>
		<path class="st0" d="M116.23,27.71c-11.24-0.95-19.84,4.14-27.45,11.67c-2.23,2.21-4.66,4.23-6.86,6.47
			c-1.31,1.34-2.28,3.02-4.41,1.18c-1.82-1.57-2.28-3.84-0.96-5.35c6.79-7.78,14.44-14.6,24.18-18.55c8.4-3.4,17.43-3.91,25.84-1.66
			c12.97,3.46,23.18,11.25,29.65,23.56c4.58,8.73,6.02,18,4.49,27.37c-1.49,9.11-5.76,17.44-10.81,25.23
			c-13.32,20.53-31.41,36.6-49.41,52.74c-0.36,0.32-0.87,0.46-1.32,0.67c-5.25,2.55-8.52,10.24-15.76,7.34
			c-5.45-2.18-9.61-6.78-14.16-10.55c-14.43-11.96-27.8-24.99-39.55-39.64c-6.76-8.43-12.66-17.46-16.2-27.64
			c-8.19-23.59,3.5-49.06,28.29-57.68c11.35-3.95,22.29-3.2,33.02,2.03c1.82,0.89,3.95,1.82,2.89,4.39
			c-1.09,2.66-3.89,2.49-5.6,1.57c-6.71-3.62-13.89-3.23-20.99-2.81c-12.66,0.75-21.73,7.74-27.92,18.25
			c-7.83,13.29-6.49,26.53,0.79,39.93c11.33,20.85,27.68,37.17,45.34,52.45c4.35,3.77,8.95,7.26,13.33,10.99
			c2.49,2.12,4.5,1.77,7.03-0.17c13.52-10.35,26.17-21.72,37.71-34.17c9.41-10.14,17.79-21.34,23.33-34.17
			c9.65-22.32-1.61-44.74-24.08-52.54C123.44,27.5,119.71,27.97,116.23,27.71z"/>
	</g>
</g>
</svg>
