<?xml version="1.0" encoding="utf-8"?>
<!-- Generator: Adobe Illustrator 28.0.0, SVG Export Plug-In . SVG Version: 6.00 Build 0)  -->
<svg version="1.1" id="Слой_1" xmlns="http://www.w3.org/2000/svg" xmlns:xlink="http://www.w3.org/1999/xlink" x="0px" y="0px"
	 viewBox="0 0 56.69 56.69" style="enable-background:new 0 0 56.69 56.69;" xml:space="preserve">
<style type="text/css">
	.st0{fill:#611A5D;}
</style>
<g>
	<g>
		<path class="st0" d="M28.37,12.42c3.94,0,7.88-0.03,11.82,0.01c4.47,0.04,6.13,2.57,4.28,6.58c-0.41,0.87-1.11,1.66-1.82,2.33
			c-6.57,6.17-10.56,13.26-8.87,22.83c0.65,3.69-1.13,3.99-4.4,2.74c-4.95-1.89-7.7-4.71-6.52-10.31c1.08-5.14-2.83-7.73-5.3-11.13
			c-2.07-2.86-5.58-4.74-5.79-8.92c-0.15-2.87,0.62-4.34,3.8-4.18C19.82,12.57,24.1,12.42,28.37,12.42z"/>
	</g>
</g>
</svg>
