<?xml version="1.0" encoding="utf-8"?>
<!-- Generator: Adobe Illustrator 28.0.0, SVG Export Plug-In . SVG Version: 6.00 Build 0)  -->
<svg version="1.1" id="Слой_1" xmlns="http://www.w3.org/2000/svg" xmlns:xlink="http://www.w3.org/1999/xlink" x="0px" y="0px"
	 viewBox="0 0 34.22 24.13" style="enable-background:new 0 0 34.22 24.13;" xml:space="preserve">
<style type="text/css">
	.st0{fill:#FFFFFF;}
</style>
<g>
	<g>
		<path class="st0" d="M10.56,8.63c-0.04,0.03-0.43,0.25-0.27,0.17c0.15-0.07-0.26,0.08-0.31,0.09C9.72,8.96,9.46,9.01,9.2,9.04
			c-0.63,0.1-1.25,0.2-1.86,0.34c-1.35,0.32-2.64,0.79-3.9,1.37c-0.99,0.45-0.97,2.14,0,2.59c2.55,1.19,5.09,2.37,7.64,3.56
			c0.5,0.23,1.02,0.29,1.51,0c0.43-0.25,0.78-0.78,0.74-1.3c-0.06-0.87-0.06-1.75,0.02-2.62c0.02-0.2,0.04-0.41,0.07-0.61
			c-0.02,0.17,0,0.02,0.01-0.06c0.02-0.1,0.03-0.2,0.05-0.3c0.08-0.46,0.18-0.91,0.3-1.36c0.19-0.73-0.18-1.48-0.87-1.77
			c-0.72-0.3-1.45-0.01-1.87,0.61c-0.08,0.12-0.09,0.1,0.01,0c-0.06,0.06-0.11,0.13-0.17,0.19c-0.06,0.06-0.12,0.12-0.18,0.17
			c-0.1,0.1-0.11,0.09,0.01,0.01c-0.29,0.22-0.61,0.4-0.93,0.58c-0.15,0.08-0.3,0.16-0.46,0.24c-0.08,0.04-0.16,0.08-0.24,0.12
			c-0.03,0.01-0.28,0.12-0.14,0.07c0.14-0.05-0.13,0.04-0.15,0.04c-0.03,0.01-0.31,0.08-0.13,0.05c0.23-0.04-0.24,0.02,0.01,0.01
			c0.16-0.01-0.19-0.1,0.06,0.03c0.18,0.68,0.36,1.37,0.54,2.05c-0.19,0.26,0.06-0.07,0.09-0.1c0.06-0.06,0.11-0.13,0.17-0.19
			c0.16-0.17,0.34-0.32,0.52-0.48c0.17-0.15-0.28,0.18,0.06-0.04c0.09-0.06,0.18-0.12,0.27-0.18c0.2-0.13,0.41-0.23,0.63-0.34
			c0.68-0.32,0.98-1.44,0.54-2.05c0.1,0.24,0.12,0.49,0.07,0.76c-0.59,0.55-0.73,0.75-0.42,0.59c0.68-0.31,0.88-1.25,0.61-1.87
			c-0.27-0.64-1.06-1.12-1.77-0.87C8.08,8.96,6.14,9.65,4.2,10.35c-0.71,0.25-1.18,0.87-1.07,1.65c0.1,0.75,0.72,1.28,1.47,1.3
			c0.84,0.03,1.55-0.35,2.29-0.69c0.31-0.14-0.1,0.03,0.19-0.08c0.19-0.07,0.37-0.14,0.56-0.21c0.3-0.11,0.61-0.21,0.92-0.3
			c1.31-0.4,2.66-0.68,4-0.96c0.87-0.18,1.47-1.45,0.9-2.2c-0.34-0.45-0.69-0.79-1.26-0.93c-0.54-0.13-1.11-0.05-1.58,0.24
			c-1.3,0.8-0.71,2.72,0.76,2.8c0.25,0.01,0.49,0.03,0.74,0.04c0.78,0.04,1.53-0.72,1.5-1.5c-0.04-0.85-0.66-1.46-1.5-1.5
			c-0.25-0.01-0.49-0.03-0.74-0.04c0.25,0.93,0.5,1.86,0.76,2.8c-0.44,0.27-1-0.04-1.26-0.39c0.3-0.73,0.6-1.47,0.9-2.2
			C10.47,8.42,9.17,8.69,7.9,9.07c-0.62,0.18-1.23,0.4-1.83,0.64c-0.37,0.15-0.74,0.3-1.09,0.48c-0.3,0.15,0.16-0.02-0.14,0.06
			c-0.08,0.03-0.17,0.05-0.25,0.07c0.18-0.02,0.19-0.03,0.01-0.03c0.13,0.98,0.27,1.96,0.4,2.95c1.94-0.69,3.88-1.38,5.82-2.07
			c-0.39-0.91-0.77-1.83-1.16-2.74c-0.97,0.44-1.35,1.89-0.72,2.76c0.18-0.68,0.36-1.37,0.54-2.05c-1.15,0.54-2.06,1.39-2.81,2.4
			c-0.46,0.63-0.13,1.71,0.54,2.05c1.34,0.68,2.62,0.21,3.86-0.44c1.02-0.53,1.92-1.18,2.58-2.14c-0.91-0.39-1.83-0.77-2.74-1.16
			c-0.49,1.87-0.69,3.83-0.56,5.76c0.75-0.43,1.5-0.86,2.26-1.3c-2.55-1.19-5.09-2.37-7.64-3.56c0,0.86,0,1.73,0,2.59
			c0.09-0.04,0.18-0.08,0.27-0.12c0.15-0.07,0.18-0.08,0.1-0.04c-0.09,0.04-0.05,0.02,0.1-0.04c0.09-0.04,0.19-0.07,0.28-0.11
			c0.28-0.11,0.56-0.21,0.85-0.3c0.62-0.2,1.25-0.37,1.88-0.51c1.22-0.27,2.58-0.26,3.65-0.99c0.65-0.44,1-1.34,0.54-2.05
			C12.19,8.52,11.25,8.16,10.56,8.63L10.56,8.63z"/>
	</g>
</g>
<g>
	<g>
		<path class="st0" d="M13.36,14.23c1.85-0.14,3.69-0.36,5.51-0.67c1.72-0.29,3.4-0.63,4.98-1.39c2.74-1.33,4.79-3.74,5.88-6.55
			c0.29-0.76-0.32-1.65-1.05-1.85c-0.85-0.23-1.55,0.29-1.85,1.05c-0.83,2.15-2.6,3.93-4.71,4.85c-1.27,0.56-2.71,0.76-4.07,0.99
			c-1.56,0.26-3.14,0.44-4.72,0.56c-0.81,0.06-1.5,0.65-1.5,1.5C11.86,13.5,12.55,14.29,13.36,14.23L13.36,14.23z"/>
	</g>
</g>
</svg>
